<?xml version="1.0" encoding="UTF-8"?>
<svg id="_레이어_1" data-name="레이어 1" xmlns="http://www.w3.org/2000/svg" viewBox="0 0 16 16">
  <defs>
    <style>
      .cls-1 {
        fill: #1b3472;
      }
    </style>
  </defs>
  <path class="cls-1" d="m16,7.17c-.07.12-.06.25-.09.38-.08.36-.24.68-.49.93-.26.28-.58.47-.98.51-.38.04-.75.13-1.12.18-.32.05-.64.08-.96.13-.37.06-.74.14-1.12.18-.26.03-.52.12-.79.05-.24-.07-.52-.38-.57-.63-.05-.25-.07-.5.07-.73.17-.27.45-.37.76-.41.3-.04.59-.09.89-.14.31-.05.62-.11.94-.15.6-.06.9-.38.99-.96.09-.56-.01-1.1-.26-1.6-.21-.42-.54-.68-1.02-.74-.49-.06-.99-.15-1.48-.22-.43-.06-.87-.1-1.3-.16-.49-.07-.99-.15-1.48-.22-.36-.05-.71-.08-1.07-.13-.42-.06-.84-.13-1.26-.19-.34-.04-.68-.06-1.02-.1-.27-.03-.54-.08-.82-.12-.24-.04-.48-.08-.73-.1-.31-.03-.62-.09-.93-.13-.33-.04-.66-.07-.97-.2-.44-.19-.78-.49-.98-.93-.11-.25-.16-.5-.19-.76,0-.01-.02-.02-.03-.03,0-.04,0-.09,0-.13.06-.03.05-.09.06-.13C.09.31.27.11.58,0h.7c.11.05.24.05.36.07.53.1,1.06.21,1.6.32.58.11,1.16.21,1.74.33.59.12,1.19.23,1.78.35.52.1,1.03.2,1.55.3.64.11,1.28.25,1.92.37.47.09.95.18,1.42.27.59.11,1.17.24,1.77.34.64.11,1.14.46,1.57.92.23.25.39.55.53.87.18.42.32.84.4,1.29.03.17.06.34.1.51v1.25Z"/>
  <path class="cls-1" d="m7.71,16c-.23-.07-.45-.14-.64-.3-.33-.28-.51-.67-.36-1.13.15-.44.46-.73.83-.97.38-.24.83-.36,1.28-.35.38,0,.75.1,1.05.35.38.33.48.81.22,1.33-.17.34-.45.58-.78.77-.24.14-.51.22-.78.29h-.83Z"/>
  <path class="cls-1" d="m6.91,12.57c-.38.03-.72-.07-1.05-.26-.38-.22-.54-.58-.66-.97-.16-.54-.33-1.09-.53-1.62-.28-.73-.49-1.48-.74-2.22-.15-.43-.27-.87-.44-1.29-.08-.18-.14-.37-.1-.57.06-.34.25-.61.51-.8.38-.28.81-.4,1.28-.46.76-.09,1.47.06,2.14.39.43.22.81.5,1.06.94.13.23.16.5.22.75.19.78.35,1.56.55,2.33.13.52.26,1.04.37,1.56.08.4-.03.78-.29,1.11-.39.49-.88.81-1.47.99-.28.09-.56.14-.84.12Z"/>
</svg>